0
SECTION
2
HEADER
9
$INSUNITS
70
4
9
$ACADVER
1
AC1014
9
$HANDSEED
5
FFFF
0
ENDSEC
0
SECTION
2
TABLES
0
TABLE
2
VPORT
5
8
100
AcDbSymbolTable
0
ENDTAB
0
TABLE
2
LTYPE
5
5
100
AcDbSymbolTable
0
LTYPE
5
14
100
AcDbSymbolTableRecord
100
AcDbLinetypeTableRecord
2
BYBLOCK
70
0
0
LTYPE
5
15
100
AcDbSymbolTableRecord
100
AcDbLinetypeTableRecord
2
BYLAYER
70
0
0
ENDTAB
0
TABLE
2
LAYER
5
2
100
AcDbSymbolTable
70
2
0
LAYER
5
50
100
AcDbSymbolTableRecord
100
AcDbLayerTableRecord
2
0
70
0
6
CONTINUOUS
0
ENDTAB
0
TABLE
2
STYLE
5
3
100
AcDbSymbolTable
70
1
0
STYLE
5
11
100
AcDbSymbolTableRecord
100
AcDbTextStyleTableRecord
2
STANDARD
70
0
0
ENDTAB
0
TABLE
2
VIEW
5
6
100
AcDbSymbolTable
70
0
0
ENDTAB
0
TABLE
2
UCS
5
7
100
AcDbSymbolTable
70
0
0
ENDTAB
0
TABLE
2
APPID
5
9
100
AcDbSymbolTable
70
2
0
APPID
5
12
100
AcDbSymbolTableRecord
100
AcDbRegAppTableRecord
2
ACAD
70
0
0
ENDTAB
0
TABLE
2
DIMSTYLE
5
A
100
AcDbSymbolTable
70
1
0
ENDTAB
0
TABLE
2
BLOCK_RECORD
5
1
100
AcDbSymbolTable
70
1
0
BLOCK_RECORD
5
1F
100
AcDbSymbolTableRecord
100
AcDbBlockTableRecord
2
*MODEL_SPACE
0
BLOCK_RECORD
5
1B
100
AcDbSymbolTableRecord
100
AcDbBlockTableRecord
2
*PAPER_SPACE
0
ENDTAB
0
ENDSEC
0
SECTION
2
BLOCKS
0
BLOCK
5
20
100
AcDbEntity
100
AcDbBlockBegin
2
*MODEL_SPACE
0
ENDBLK
5
21
100
AcDbEntity
100
AcDbBlockEnd
0
BLOCK
5
1C
100
AcDbEntity
100
AcDbBlockBegin
2
*PAPER_SPACE
0
ENDBLK
5
1D
100
AcDbEntity
100
AcDbBlockEnd
0
ENDSEC
0
SECTION
2
ENTITIES
0
LWPOLYLINE
5
100
100
AcDbEntity
8
OUTER_PROFILES
100
AcDbPolyline
90
4
70
1
43
0.0
10
127.7510685051102
20
0
10
0
20
0
10
0
20
69.145999999999958
10
127.7510685051102
20
69.145999999999958
0
LWPOLYLINE
5
101
100
AcDbEntity
8
INTERIOR_PROFILES
100
AcDbPolyline
90
4
70
1
43
0.0
10
38.875534252555084
20
27.197999999999993
10
58.87553425255507
20
27.197999999999993
10
58.87553425255507
20
41.947999999999972
10
38.875534252555084
20
41.947999999999972
0
LWPOLYLINE
5
102
100
AcDbEntity
8
INTERIOR_PROFILES
100
AcDbPolyline
90
4
70
1
43
0.0
10
38.875534252555084
20
21.947999999999972
10
38.875534252555084
20
7.1979999999999933
10
58.87553425255507
20
7.1979999999999933
10
58.87553425255507
20
21.947999999999972
0
LWPOLYLINE
5
103
100
AcDbEntity
8
INTERIOR_PROFILES
100
AcDbPolyline
90
4
70
1
43
0.0
10
68.875534252555084
20
27.197999999999993
10
88.87553425255507
20
27.197999999999993
10
88.87553425255507
20
41.947999999999972
10
68.875534252555084
20
41.947999999999972
0
CIRCLE
5
104
100
AcDbEntity
8
INTERIOR_PROFILES
100
AcDbCircle
10
-6.3499999999999979
20
9.1729999999999823
30
0
40
1.9050000000000011
210
0
220
0
230
-1
0
CIRCLE
5
105
100
AcDbEntity
8
INTERIOR_PROFILES
100
AcDbCircle
10
-6.3499999999999979
20
34.572999999999979
30
0
40
1.9050000000000011
210
0
220
0
230
-1
0
CIRCLE
5
106
100
AcDbEntity
8
INTERIOR_PROFILES
100
AcDbCircle
10
-6.3499999999999979
20
59.972999999999985
30
0
40
1.9050000000000011
210
0
220
0
230
-1
0
CIRCLE
5
107
100
AcDbEntity
8
INTERIOR_PROFILES
100
AcDbCircle
10
-121.40106850511019
20
9.1729999999999823
30
0
40
1.9050000000000011
210
0
220
0
230
-1
0
CIRCLE
5
108
100
AcDbEntity
8
INTERIOR_PROFILES
100
AcDbCircle
10
-121.40106850511019
20
34.572999999999979
30
0
40
1.9050000000000011
210
0
220
0
230
-1
0
CIRCLE
5
109
100
AcDbEntity
8
INTERIOR_PROFILES
100
AcDbCircle
10
-121.40106850511019
20
59.972999999999985
30
0
40
1.9050000000000011
210
0
220
0
230
-1
0
LWPOLYLINE
5
110
100
AcDbEntity
8
INTERIOR_PROFILES
100
AcDbPolyline
90
4
70
1
43
0.0
10
68.875534252555084
20
21.947999999999972
10
68.875534252555084
20
7.1979999999999933
10
88.87553425255507
20
7.1979999999999933
10
88.87553425255507
20
21.947999999999972
0
LWPOLYLINE
5
111
100
AcDbEntity
8
INTERIOR_PROFILES
100
AcDbPolyline
90
4
70
1
43
0.0
10
68.875534252555084
20
47.198000000000029
10
88.87553425255507
20
47.198000000000029
10
88.87553425255507
20
61.947999999999972
10
68.875534252555084
20
61.947999999999972
0
LWPOLYLINE
5
112
100
AcDbEntity
8
INTERIOR_PROFILES
100
AcDbPolyline
90
4
70
1
43
0.0
10
38.875534252555084
20
61.947999999999972
10
38.875534252555084
20
47.198000000000029
10
58.87553425255507
20
47.198000000000029
10
58.87553425255507
20
61.947999999999972
0
LINE
5
113
100
AcDbEntity
8
BEND
100
AcDbLine
10
33.068150689416306
20
0
30
-1.6949692125421034e-13
11
33.068150689416306
21
69.145999999999958
31
-1.6949692125421034e-13
0
LINE
5
114
100
AcDbEntity
8
BEND
100
AcDbLine
10
94.682917815693855
20
69.146000000000001
30
-1.5030243684826513e-13
11
94.682917815693855
21
0
31
-1.5030243684826513e-13
0
LINE
5
115
100
AcDbEntity
8
BEND
100
AcDbLine
10
113.90168494197142
20
0
30
-1.4879412027726414e-13
11
113.90168494197142
21
69.145999999999958
31
-1.4921614136423485e-13
0
LINE
5
116
100
AcDbEntity
8
BEND
100
AcDbLine
10
13.849383563138741
20
69.146000000000001
30
-7.5580934950533531e-14
11
13.849383563138741
21
0
31
-8.7025200157761291e-14
0
LINE
5
117
100
AcDbEntity
8
BEND_EXTENT
100
AcDbLine
10
115.71146850511019
20
69.145999999999958
30
-1.4908167927255792e-13
11
115.71146850511019
21
0
31
-1.4880412351640163e-13
0
LINE
5
118
100
AcDbEntity
8
BEND_EXTENT
100
AcDbLine
10
112.09190137883266
20
0
30
-1.4863635284794415e-13
11
112.09190137883266
21
69.145999999999958
31
-1.4863635284794415e-13
0
LINE
5
119
100
AcDbEntity
8
BEND_EXTENT
100
AcDbLine
10
96.492701378832635
20
69.146000000000001
30
-1.5158966641373587e-13
11
96.492701378832635
21
0
31
-1.5158966641373587e-13
0
LINE
5
120
100
AcDbEntity
8
BEND_EXTENT
100
AcDbLine
10
12.039599999999995
20
0
30
-7.6069162880936735e-14
11
12.039599999999995
21
69.146000000000001
31
-7.6069162880936735e-14
0
LINE
5
121
100
AcDbEntity
8
BEND_EXTENT
100
AcDbLine
10
15.659167126277529
20
69.145999999999958
30
-9.6571124587827199e-14
11
15.659167126277529
21
0
31
-9.6571124587827199e-14
0
LINE
5
122
100
AcDbEntity
8
BEND_EXTENT
100
AcDbLine
10
31.258367126277534
20
0
30
-1.6217408279263887e-13
11
31.258367126277534
21
69.145999999999958
31
-1.6217408279263887e-13
0
LINE
5
123
100
AcDbEntity
8
BEND_EXTENT
100
AcDbLine
10
34.877934252555093
20
69.145999999999958
30
-1.6979096866712609e-13
11
34.877934252555093
21
0
31
-1.6979096866712609e-13
0
LINE
5
124
100
AcDbEntity
8
BEND_EXTENT
100
AcDbLine
10
92.873134252555076
20
0
30
-1.4952389566237446e-13
11
92.873134252555076
21
69.145999999999958
31
-1.4952389566237446e-13
0
ENDSEC
0
SECTION
2
OBJECTS
0
DICTIONARY
5
C
100
AcDbDictionary
3
ACAD_GROUP
350
D
3
ACAD_MLINESTYLE
350
17
0
DICTIONARY
5
D
100
AcDbDictionary
0
DICTIONARY
5
1A
330
C
100
AcDbDictionary
0
DICTIONARY
5
17
100
AcDbDictionary
0
ENDSEC
0
EOF
